<?xml version="1.0" encoding="UTF-8" standalone="no"?>
<!-- Created with Inkscape (http://www.inkscape.org/) -->

<svg
   width="512"
   height="512"
   viewBox="0 0 512 512"
   version="1.1"
   id="svg1"
   xmlns="http://www.w3.org/2000/svg"
   xmlns:svg="http://www.w3.org/2000/svg">
  <defs
     id="defs1" />
  <g
     id="layer1"
     style="stroke:#ffffff;stroke-opacity:1">
    <g
       id="g16"
       style="stroke:#ffffff;stroke-opacity:1">
      <path
         id="text1"
         style="-inkscape-font-specification:'Noto Sans Tirhuta Bold';opacity:0.93;fill:#53c033;fill-opacity:0.933333;stroke:#ffffff;stroke-width:7.4156;stroke-linecap:round;stroke-linejoin:round;stroke-opacity:1;paint-order:fill markers stroke"
         d="m 224.25781,199.21875 h -69.99609 c 0.58652,2.61821 0.97266,5.34732 0.97266,8.28906 -10e-6,7.76355 -0.98954,14.37523 -2.96876,19.83399 -1.67557,4.80103 -4.39508,8.98026 -8.04882,12.60351 h 74.7207 c 3.7143,-11.13919 5.62891,-22.49274 5.62891,-34.07422 0,-2.29972 -0.1879,-4.44955 -0.3086,-6.65234 z" />
      <path
         id="path16"
         style="-inkscape-font-specification:'Noto Sans Tirhuta Bold';opacity:0.93;fill:#f1090e;fill-opacity:0.933333;stroke:#ffffff;stroke-width:7.4156;stroke-linecap:round;stroke-linejoin:round;stroke-opacity:1;paint-order:fill markers stroke"
         d="M 160.29492,124.50977 H 26.738281 c -7.07666,0 -12.77539,5.69677 -12.77539,12.77343 v 15.17969 c 0,7.07665 5.69873,12.77344 12.77539,12.77344 H 215.95898 c -5.46508,-10.9652 -13.35816,-19.98998 -23.70117,-27.05469 -8.73181,-5.94398 -18.80333,-10.37187 -30.21289,-13.2832 -0.55136,-0.14807 -1.18615,-0.24784 -1.75,-0.38867 z" />
      <path
         id="path15"
         style="-inkscape-font-specification:'Noto Sans Tirhuta Bold';opacity:0.93;fill:#002433;fill-opacity:0.933333;stroke:#ffffff;stroke-width:7.4156;stroke-linecap:round;stroke-linejoin:round;stroke-opacity:1;paint-order:fill markers stroke"
         d="m 9.9375,276.11328 c 2.040482,-1.37981 4.504802,-2.18555 7.164062,-2.18555 H 197.49805 c 1.1595,-1.10249 2.36178,-2.11472 3.49218,-3.27929 7.56756,-7.88487 13.38805,-17.58926 17.46289,-29.11328 0.18445,-0.52713 0.30828,-1.06173 0.48438,-1.58985 h -74.7207 c -0.40823,0.40483 -0.77411,0.83449 -1.20703,1.22461 -5.00625,4.367 -11.23442,7.2787 -18.68555,8.73438 -7.33472,1.45566 -16.70764,2.18359 -28.117189,2.18359 H 76.998047 v -81.1543 h 11.525391 c 11.060294,0 19.908752,0.18296 26.544922,0.54688 6.63617,0.24261 13.4462,1.81913 20.43164,4.73047 5.23909,2.1835 9.83846,6.06642 13.79688,11.64648 2.43469,3.35751 4.02765,7.17778 4.96484,11.36133 h 69.99609 c -0.70058,-12.78603 -3.30713,-24.04054 -8.07422,-33.56055 -0.0706,-0.14395 -0.15319,-0.27858 -0.22461,-0.42187 H 26.738281 c -7.07666,0 -12.77539,-5.69679 -12.77539,-12.77344 V 137.2832 c 0,-7.07666 5.69873,-12.77343 12.77539,-12.77343 H 160.29492 c -10.98507,-2.74375 -24.26321,-4.16016 -39.98828,-4.16016 H 9.9375 Z" />
      <path
         id="path14"
         style="-inkscape-font-specification:'Noto Sans Tirhuta Bold';opacity:0.93;fill:#f1080e;fill-opacity:0.870588;stroke:#ffffff;stroke-width:7.4156;stroke-linecap:round;stroke-linejoin:round;stroke-opacity:1;paint-order:fill markers stroke"
         d="m 76.998047,314.6543 v -11.61719 h 41.738283 c 18.97713,0 34.80978,-2.73071 47.5,-8.18945 11.40953,-4.86323 21.79276,-11.91656 31.26172,-20.91993 H 17.101562 c -2.65926,0 -5.12358,0.80574 -7.164062,2.18555 v 36.35547 c 2.040482,1.37981 4.504802,2.18555 7.164062,2.18555 z" />
      <path
         id="path13"
         style="-inkscape-font-specification:'Noto Sans Tirhuta Bold';opacity:0.93;fill:#002433;fill-opacity:0.933333;stroke:#ffffff;stroke-width:7.4156;stroke-linecap:round;stroke-linejoin:round;stroke-opacity:1;paint-order:fill markers stroke"
         d="M 76.998047,314.6543 H 17.101562 c -2.65926,0 -5.12358,-0.80574 -7.164062,-2.18555 v 78.81836 h 67.060547 z" />
      <path
         id="path12"
         style="-inkscape-font-specification:'Noto Sans Tirhuta Bold';opacity:0.93;fill:#002433;fill-opacity:0.870588;stroke:#ffffff;stroke-width:7.4156;stroke-linecap:round;stroke-linejoin:round;stroke-opacity:1;paint-order:fill markers stroke"
         d="M 458.28711,389.36328 H 344.60742 c 15.97982,5.02807 33.87562,7.56445 53.7207,7.56445 19.09356,0 38.24512,-2.3064 57.45508,-6.91601 0.8778,-0.21618 1.64191,-0.43226 2.50391,-0.64844 z" />
      <path
         id="path11"
         style="-inkscape-font-specification:'Noto Sans Tirhuta Bold';opacity:0.93;fill:#53c033;fill-opacity:0.870588;stroke:#ffffff;stroke-width:7.4156;stroke-linecap:round;stroke-linejoin:round;stroke-opacity:1;paint-order:fill markers stroke"
         d="m 501.41797,376.0625 v -14.65234 c 0,-7.07667 -5.69679,-12.77344 -12.77344,-12.77344 H 284.91016 c 2.94482,3.77317 6.10063,7.38673 9.50976,10.80664 13.80303,13.77976 30.54312,23.73879 50.1875,29.91992 h 113.67969 c 17.68022,-4.434 32.09811,-8.86679 43.13086,-13.30078 z" />
      <path
         id="path10"
         style="-inkscape-font-specification:'Noto Sans Tirhuta Bold';opacity:0.93;fill:#f1080e;fill-opacity:0.870588;stroke:#ffffff;stroke-width:7.4156;stroke-linecap:round;stroke-linejoin:round;stroke-opacity:1;paint-order:fill markers stroke"
         d="m 433.95508,314.6543 h 45.16211 c 7.07666,0 12.77344,-5.69679 12.77343,-12.77344 v -15.17969 c 0,-7.07666 -5.69677,-12.77344 -12.77343,-12.77344 h -97.0293 v 19.28321 h 51.86719 z" />
      <path
         id="path9"
         style="-inkscape-font-specification:'Noto Sans Tirhuta Bold';opacity:0.93;fill:#002433;fill-opacity:0.933333;stroke:#ffffff;stroke-width:7.4156;stroke-linecap:round;stroke-linejoin:round;stroke-opacity:1;paint-order:fill markers stroke"
         d="m 342.53711,314.6543 h -76.26953 c 4.55263,12.59226 10.78017,23.9084 18.64258,33.98242 h 203.73437 c 7.07665,0 12.77344,5.69677 12.77344,12.77344 v 14.65234 c 0.2009,-0.0807 0.44583,-0.16144 0.64453,-0.24219 V 242.08008 H 382.08789 v 31.84765 h 97.0293 c 7.07666,0 12.77343,5.69678 12.77343,12.77344 v 15.17969 c 10e-6,7.07665 -5.69677,12.77344 -12.77343,12.77344 h -45.16211 v 31.6875 c -2.56133,0.24261 -5.41515,0.42556 -8.5586,0.54687 -3.02703,0.12131 -5.81952,0.18164 -8.38086,0.18164 -29.80456,0 -52.33438,-7.94489 -67.58593,-23.83593 -2.53489,-2.64118 -4.77901,-5.5502 -6.89258,-8.58008 z" />
      <path
         id="path8"
         style="-inkscape-font-specification:'Noto Sans Tirhuta Bold';opacity:0.93;fill:#f1080e;fill-opacity:0.870588;stroke:#ffffff;stroke-width:7.4156;stroke-linecap:round;stroke-linejoin:round;stroke-opacity:1;paint-order:fill markers stroke"
         d="m 327.80664,273.92773 h -70.13086 c 1.28055,14.77991 4.12478,28.37109 8.5918,40.72657 h 76.26953 C 334.85289,303.63871 329.922,290.08129 327.80664,273.92773 Z" />
      <path
         id="path7"
         style="-inkscape-font-specification:'Noto Sans Tirhuta Bold';opacity:0.93;fill:#002433;fill-opacity:0.870588;stroke:#ffffff;stroke-width:7.4156;stroke-linecap:round;stroke-linejoin:round;stroke-opacity:1;paint-order:fill markers stroke"
         d="m 327.39648,239.94531 h -69.9121 c -0.40543,5.06951 -0.61133,10.2673 -0.61133,15.59961 0,6.33115 0.28812,12.44321 0.80273,18.38281 h 70.13086 c -0.80353,-6.13599 -1.25391,-12.59726 -1.25391,-19.47461 0,-5.07221 0.34325,-9.85568 0.84375,-14.50781 z" />
      <path
         id="path6"
         style="-inkscape-font-specification:'Noto Sans Tirhuta Bold';opacity:0.93;fill:#53c033;fill-opacity:0.933333;stroke:#ffffff;stroke-width:7.4156;stroke-linecap:round;stroke-linejoin:round;stroke-opacity:1;paint-order:fill markers stroke"
         d="m 341.18359,199.21875 h -75.0664 c -4.57334,12.47594 -7.45885,26.04713 -8.63281,40.72656 h 69.9121 c 0.94786,-8.8102 2.70045,-16.94644 5.44336,-24.25 2.32669,-6.09335 5.13399,-11.55103 8.34375,-16.47656 z" />
      <path
         id="path5"
         style="-inkscape-font-specification:'Noto Sans Tirhuta Bold';opacity:0.93;fill:#002433;fill-opacity:0.933333;stroke:#ffffff;stroke-width:7.4156;stroke-linecap:round;stroke-linejoin:round;stroke-opacity:1;paint-order:fill markers stroke"
         d="m 400.42383,115.07227 c -45.17254,0 -80.39028,12.9197 -105.6543,38.75781 -12.79636,13.02568 -22.3374,28.1617 -28.65234,45.38867 h 75.0664 c 2.73289,-4.19374 5.74608,-8.01418 9.11914,-11.36133 7.684,-7.52094 16.3583,-13.10106 26.02149,-16.74023 9.6632,-3.63917 20.43334,-5.45899 32.30859,-5.45899 10.12891,0 19.67598,1.39357 28.64063,4.1836 9.08107,2.79003 16.9974,6.12603 23.75,10.00781 5.82122,3.27526 11.87521,7.27885 18.16211,12.00977 6.2869,4.60962 11.06044,8.18891 14.32031,10.73632 h 7.50976 v -63.5039 c -18.97711,-9.58315 -36.20894,-15.95153 -51.69335,-19.10547 -15.4844,-3.27526 -31.7841,-4.91406 -48.89844,-4.91406 z" />
    </g>
  </g>
</svg>
